# xmcd
#
# Track frame offsets: 
#        183
#        25670
#        49133
#
# Disc length: 890 seconds
#
# Revision: 0
# Processed by: cddbd v1.5.2PL0 Copyright (c) Steve Scherf et al.
# Submitted via: ExactAudioCopy v0.95b3
#
DISCID=1b037803
DTITLE=Fancy - Fools Cry
DYEAR=1988
DGENRE=Italo-Disco
TTITLE0=Fools Cry (Extended Version)
TTITLE1=Moscow Is Calling
TTITLE2=Fools Cry (Radio Version)
EXTD=
EXTT0=
EXTT1=
EXTT2=
PLAYORDER=
